<svg width="34" height="34" viewBox="0 0 34 34" fill="none" xmlns="http://www.w3.org/2000/svg">
<circle cx="17" cy="17" r="14.1667" fill="#00636F"/>
<path d="M21.9794 18.7416L23.6626 20.4284C24.2237 20.9907 24.2237 22.1152 23.6626 22.6775C22.577 23.7654 21.1514 24.0833 20.5767 24.0833C18.3325 24.0833 16.9302 23.8018 13.5639 20.4282C10.1976 17.0545 9.91675 15.087 9.91675 13.4001C9.91675 12.2756 10.1974 11.432 11.3195 10.3075C11.8806 9.74515 12.9924 9.80981 13.5536 10.3721L15.2468 11.9943C15.8079 12.5566 15.8079 13.6812 15.2468 14.2434L14.1247 15.368C14.4052 17.3359 16.6005 19.5799 18.6131 19.8662L19.7352 18.7416C20.2963 18.1793 21.4184 18.1793 21.9794 18.7416Z" fill="white"/>
</svg>
