<svg width="13" height="13" viewBox="0 0 13 13" fill="none" xmlns="http://www.w3.org/2000/svg">
<g clip-path="url(#clip0_263_3906)">
<path d="M12.8193 10.81L10.9865 12.6281C10.7159 12.9056 10.3573 12.9996 10.008 13C8.46351 12.9537 7.00358 12.195 5.8049 11.416C3.83733 9.9846 2.03199 8.20972 0.898935 6.06485C0.464366 5.16543 -0.0455374 4.01785 0.00318008 3.01393C0.00752425 2.63628 0.109293 2.26564 0.375262 2.02221L2.20811 0.190286C2.58871 -0.133447 2.95677 -0.0215165 3.20033 0.35557L4.67486 3.15168C4.83006 3.48293 4.74103 3.83785 4.50948 4.07455L3.83422 4.74946C3.79253 4.80657 3.76599 4.87157 3.76532 4.94231C4.02425 5.94463 4.80871 6.86847 5.50169 7.50424C6.19467 8.14003 6.93955 9.00139 7.90645 9.2053C8.02596 9.23864 8.17235 9.25035 8.25786 9.17086L9.04338 8.37198C9.31417 8.16674 9.70515 8.06643 9.99424 8.23425H10.008L12.6677 9.80446C13.0582 10.0492 13.0989 10.5222 12.8193 10.81Z" fill="#fff"/>
</g>
<defs>
<clipPath id="clip0_263_3906">
<rect width="13" height="13" fill="white"/>
</clipPath>
</defs>
</svg>
