<svg width="250" height="26" viewBox="0 0 250 26" fill="none" xmlns="http://www.w3.org/2000/svg">
<g clip-path="url(#clip0_77_247)">
<path d="M44.7709 25.1919L42.0179 18.2071H33.1752L30.4569 25.1919H27.8516L36.5865 3.15308H38.7455L47.4301 25.1919H44.7709ZM41.2206 15.9139L38.6552 9.10871C38.3194 8.24763 37.9761 7.19315 37.6252 5.94527C37.3728 7.01761 37.0561 8.07398 36.6769 9.10871L34.0715 15.9139H41.2206Z" fill="#46ACB9"/>
<path d="M55.9965 10.6766H51.7845V25.1919H49.2763V10.6766H46.3479V9.5525L49.3007 8.65458V7.73248C49.281 3.70335 51.048 1.68878 54.6017 1.68878C55.6491 1.71629 56.6869 1.89426 57.683 2.21717L57.0334 4.21332C56.2363 3.93396 55.4012 3.77619 54.5566 3.74537C54.1561 3.71628 53.7547 3.78695 53.3886 3.95097C53.0226 4.11499 52.7034 4.36719 52.4601 4.68473C52.0085 5.31328 51.781 6.3148 51.781 7.69622V8.76509H55.993L55.9965 10.6766ZM66.4753 10.6766H62.265V25.1919H59.75V10.6766H56.7972V9.5525L59.75 8.65458V7.73248C59.75 3.68723 61.5268 1.66403 65.0806 1.66288C66.1274 1.69038 67.1646 1.86836 68.1601 2.19127L67.5105 4.18742C66.7145 3.90627 65.8797 3.74845 65.0354 3.71947C64.6353 3.69168 64.2344 3.7633 63.8691 3.92789C63.5037 4.09248 63.1852 4.34486 62.9424 4.66228C62.4908 5.29083 62.265 6.29235 62.265 7.67377V8.73746H66.4753V10.6766Z" fill="#46ACB9"/>
<path d="M82.2517 16.9483C82.2517 19.6259 81.5714 21.7199 80.2109 23.2303C78.8503 24.7406 76.9663 25.4889 74.5589 25.4751C73.1687 25.5026 71.7984 25.1438 70.6022 24.439C69.442 23.73 68.5181 22.6962 67.9465 21.4672C67.2964 20.0441 66.9776 18.4936 67.0137 16.931C67.0137 14.2534 67.6883 12.1651 69.0373 10.6663C70.3816 9.16572 72.2592 8.42148 74.6492 8.42148C75.6835 8.37534 76.7152 8.5575 77.6702 8.95489C78.6252 9.35227 79.4798 9.95502 80.1726 10.7198C81.5332 12.2474 82.2153 14.3196 82.2187 16.9362L82.2517 16.9483ZM69.607 16.9362C69.607 19.0394 70.0314 20.6413 70.8801 21.7418C71.3201 22.2961 71.8888 22.7361 72.5374 23.0239C73.186 23.3118 73.8952 23.4388 74.6041 23.3943C75.3149 23.4382 76.0259 23.3114 76.677 23.0247C77.3282 22.738 77.9004 22.2998 78.3454 21.747C79.1942 20.6534 79.6186 19.0498 79.6186 16.9362C79.6186 14.8226 79.1942 13.2346 78.3454 12.172C77.8934 11.6212 77.3155 11.1858 76.6598 10.9022C76.0042 10.6187 75.2898 10.4951 74.5763 10.542C73.8737 10.4956 73.1701 10.6174 72.5245 10.8971C71.879 11.1768 71.3104 11.6063 70.8662 12.1496C70.029 13.2167 69.6104 14.8123 69.6104 16.9362" fill="#46ACB9"/>
<path d="M92.6526 8.43007C93.3162 8.42102 93.979 8.47888 94.6309 8.60275L94.2835 10.9166C93.6891 10.7816 93.0817 10.711 92.4719 10.706C91.814 10.7042 91.1639 10.8486 90.5692 11.1285C89.9745 11.4084 89.4502 11.8168 89.0346 12.3239C88.0666 13.4481 87.5583 14.8926 87.6103 16.3715V25.1987H85.1091V8.73744H87.1761L87.4644 11.7835H87.5825C88.1182 10.7979 88.8769 9.94962 89.7988 9.30554C90.6318 8.74127 91.6168 8.44033 92.6248 8.44216" fill="#46ACB9"/>
<path d="M107.446 22.9833H107.31C106.152 24.6514 104.421 25.4872 102.115 25.4906C101.158 25.5393 100.202 25.3649 99.3248 24.9815C98.4473 24.5981 97.672 24.0161 97.0607 23.2821C95.8599 21.8051 95.259 19.7146 95.2578 17.0104C95.2567 14.3063 95.8599 12.1951 97.0677 10.6766C97.6719 9.9339 98.444 9.34347 99.3211 8.95339C100.198 8.56332 101.155 8.38462 102.115 8.43184C103.111 8.38005 104.104 8.57549 105.005 9.00054C105.906 9.42559 106.686 10.0669 107.276 10.8666H107.474L107.394 9.68548L107.338 8.52854V1.83212H109.841V25.1919H107.802L107.446 22.9833ZM102.431 23.4047C104.127 23.4047 105.384 22.9384 106.15 22.0233C106.916 21.1081 107.281 19.6058 107.281 17.5337V17.0156C107.281 14.6868 106.891 13.0216 106.112 12.0201C105.333 11.0185 104.085 10.5207 102.369 10.5264C101.705 10.4916 101.044 10.6286 100.45 10.924C99.8554 11.2194 99.3484 11.6631 98.9783 12.2117C98.1978 13.3353 97.8076 14.9389 97.8076 17.0225C97.8076 19.1062 98.1955 20.6925 98.9714 21.7815C99.3586 22.3078 99.8713 22.7302 100.463 23.0108C101.056 23.2914 101.708 23.4214 102.364 23.3891" fill="#46ACB9"/>
<path d="M123.787 25.1919L123.283 22.8486H123.165C122.518 23.7301 121.672 24.4482 120.695 24.945C119.723 25.344 118.677 25.5352 117.626 25.5062C116.226 25.5869 114.848 25.1371 113.768 24.2473C113.29 23.7842 112.918 23.2235 112.678 22.6037C112.438 21.984 112.336 21.32 112.379 20.6574C112.379 17.3374 115.052 15.5951 120.4 15.4304L123.226 15.3406V14.3046C123.226 13.013 122.947 12.0598 122.39 11.445C121.833 10.8303 120.94 10.5212 119.71 10.5178C118.058 10.5837 116.442 11.0218 114.984 11.799L114.189 9.87714C115.911 8.96056 117.831 8.47458 119.785 8.46118C121.758 8.46118 123.215 8.89978 124.171 9.77008C125.126 10.6404 125.595 12.0149 125.595 13.9575V25.1953L123.787 25.1919ZM118.135 23.4323C119.481 23.508 120.802 23.0497 121.808 22.1579C122.27 21.6877 122.627 21.1269 122.858 20.5113C123.088 19.8958 123.187 19.2392 123.148 18.5835V17.095L120.638 17.1952C118.649 17.2694 117.207 17.5785 116.332 18.1225C115.902 18.3889 115.553 18.7654 115.32 19.2122C115.087 19.6591 114.98 20.1601 115.008 20.6626C114.981 21.0445 115.041 21.4277 115.183 21.7837C115.325 22.1397 115.545 22.4594 115.828 22.7191C116.484 23.2286 117.305 23.4806 118.135 23.4271" fill="#46ACB9"/>
<path d="M136.94 8.4612C137.906 8.41166 138.87 8.58909 139.754 8.97911C140.638 9.36913 141.417 9.96075 142.028 10.706C143.233 12.1772 143.834 14.2655 143.831 16.9707C143.827 19.676 143.213 21.7665 141.988 23.2424C141.383 23.9839 140.61 24.5735 139.734 24.9635C138.857 25.3535 137.9 25.5329 136.94 25.4872C135.927 25.5084 134.921 25.3165 133.988 24.9242C133.086 24.5247 132.307 23.895 131.73 23.099H131.556L131.024 25.2178H129.213V1.83212H131.723V7.50111C131.723 8.77547 131.681 9.91859 131.598 10.9305H131.723C132.886 9.28429 134.618 8.4612 136.918 8.4612H136.94ZM136.555 10.5523C134.84 10.5523 133.606 11.0393 132.853 12.0132C132.096 12.9905 131.723 14.6361 131.723 16.9466C131.723 19.257 132.107 20.9181 132.853 21.9093C133.6 22.9005 134.872 23.403 136.584 23.403C137.256 23.4451 137.927 23.3117 138.531 23.016C139.135 22.7204 139.651 22.2727 140.027 21.7176C140.78 20.5929 141.156 18.9893 141.156 16.9068C141.156 14.7599 140.78 13.162 140.027 12.1133C139.275 11.0634 138.104 10.5402 136.527 10.5402" fill="#46ACB9"/>
<path d="M149.155 1.83212H146.645V25.1919H149.155V1.83212Z" fill="#46ACB9"/>
<path d="M159.911 25.4906C157.462 25.4906 155.531 24.7423 154.119 23.2458C152.706 21.7492 151.999 19.6875 151.998 17.0605C151.998 14.4128 152.656 12.3055 153.971 10.7388C154.616 9.97637 155.428 9.37151 156.346 8.97091C157.263 8.5703 158.261 8.38468 159.262 8.42836C160.182 8.38559 161.101 8.54577 161.953 8.89743C162.804 9.2491 163.567 9.78354 164.186 10.4625C165.445 11.9623 166.092 13.8777 165.999 15.8293V17.4197H154.586C154.636 19.3536 155.15 20.792 156.06 21.8143C156.572 22.3333 157.191 22.7364 157.874 22.9963C158.556 23.2561 159.288 23.3665 160.017 23.32C161.838 23.3094 163.637 22.9268 165.303 22.1959V24.4407C164.492 24.7913 163.648 25.0586 162.782 25.2385C161.839 25.4161 160.881 25.4994 159.922 25.4871L159.911 25.4906ZM159.242 10.516C158.649 10.4895 158.058 10.5914 157.508 10.8147C156.959 11.0381 156.465 11.3774 156.06 11.8094C155.214 12.8157 154.726 14.0715 154.671 15.3821H163.326C163.326 13.8096 162.973 12.6071 162.268 11.7748C161.895 11.3497 161.429 11.0151 160.906 10.7969C160.383 10.5787 159.816 10.4826 159.249 10.516" fill="#46ACB9"/>
<path d="M12.4659 20.4035L12.5111 20.4726C11.5896 21.8525 10.5172 23.1265 9.31342 24.2715C5.26466 28.0031 2.89724 19.8941 2.01835 16.9655C1.28734 14.6513 0.737413 12.2843 0.373492 9.88578C0.0712684 7.79984 -0.567918 4.56905 1.12732 2.90617C3.69969 0.398895 9.07546 2.90617 11.8684 3.97159L12.4329 4.20125H12.4729C10.6804 4.95584 8.68465 6.1594 7.94993 7.96215C6.92689 10.4418 8.24347 13.1097 9.39679 15.2681C10.3118 17.0224 11.3195 18.7274 12.4156 20.3759" fill="#46ACB9"/>
<path d="M15.575 15.2957C14.6597 17.0485 13.6544 18.7534 12.5631 20.4035C12.5477 20.4274 12.5303 20.45 12.511 20.4709L12.4659 20.4035C11.3696 18.7537 10.3625 17.047 9.44884 15.2906C8.31811 13.1269 6.97895 10.4556 8.00199 7.9846C8.72976 6.18185 10.7255 4.97829 12.518 4.22542C14.3035 4.97829 16.294 6.18703 17.034 7.9846C18.0518 10.4625 16.7352 13.1321 15.5819 15.2906" fill="#008999"/>
<path d="M24.6539 9.89613C24.2903 12.2987 23.7404 14.6697 23.009 16.988C22.1266 19.8993 19.7575 28.0082 15.7139 24.2922C14.5077 23.1491 13.4345 21.8748 12.5145 20.4933C12.5338 20.4724 12.5512 20.4499 12.5667 20.426C13.6568 18.7757 14.6609 17.0709 15.575 15.3182C16.7057 13.1494 18.0449 10.4832 17.0288 8.01395C16.2923 6.21638 14.3036 5.00764 12.5059 4.25477H12.5406L13.1051 4.02338C15.9311 2.97868 21.2842 0.448963 23.8445 2.95624C25.5414 4.64156 24.9075 7.84991 24.6087 9.94621" fill="#BFE0E5"/>
<path d="M186.055 19.1067C186.1 20.0737 185.911 21.0372 185.505 21.917C185.099 22.7968 184.487 23.5674 183.721 24.1644C182.168 25.3847 180.02 25.9931 177.277 25.9896C174.969 26.0744 172.672 25.6424 170.555 24.7256V20.9544C171.688 21.483 172.874 21.8922 174.093 22.1752C175.229 22.4588 176.395 22.6078 177.567 22.619C179.13 22.619 180.292 22.3254 181.041 21.7297C181.406 21.4494 181.7 21.0866 181.896 20.6713C182.093 20.2561 182.187 19.8003 182.171 19.3416C182.177 18.9092 182.088 18.4808 181.91 18.0861C181.733 17.6913 181.471 17.3396 181.143 17.0553C180.461 16.4291 179.048 15.6808 176.903 14.8105C174.662 13.9299 173.098 12.9278 172.214 11.8042C171.297 10.628 170.818 9.17307 170.857 7.68585C170.815 6.78278 170.987 5.88247 171.358 5.05738C171.73 4.2323 172.291 3.5055 172.997 2.9355C174.425 1.78432 176.35 1.20873 178.772 1.20873C181.162 1.22495 183.521 1.7397 185.697 2.71966L184.438 5.93491C182.624 5.11095 180.665 4.65091 178.672 4.58112C177.633 4.51005 176.603 4.80404 175.76 5.41169C175.437 5.67931 175.179 6.01694 175.006 6.39881C174.834 6.78068 174.751 7.19668 174.765 7.61505C174.751 8.17425 174.887 8.72708 175.161 9.21577C175.496 9.72957 175.944 10.1602 176.473 10.4746C177.52 11.0861 178.617 11.6105 179.752 12.0425C181.135 12.5643 182.447 13.2551 183.658 14.0991C184.429 14.6656 185.054 15.4052 185.482 16.2575C185.888 17.1502 186.085 18.1223 186.06 19.1015" fill="#008999"/>
<path d="M204.052 25.6184H200.147V14.3805C200.147 12.9819 199.881 11.94 199.35 11.2551C199.049 10.8977 198.667 10.6172 198.235 10.4369C197.804 10.2566 197.335 10.1819 196.868 10.219C195.363 10.219 194.262 10.7077 193.567 11.6799C192.873 12.652 192.51 14.27 192.51 16.5235V25.6097H188.629V7.40611H191.676L192.24 9.79424H192.438C192.957 8.92027 193.727 8.22123 194.65 7.78773C195.642 7.31086 196.733 7.06856 197.835 7.07975C200.649 7.07975 202.514 8.03523 203.43 9.94619H203.695C204.232 9.0455 205.015 8.31493 205.953 7.83953C207.005 7.31625 208.17 7.05548 209.346 7.07975C211.532 7.07975 213.12 7.64268 214.12 8.72709C215.121 9.81151 215.619 11.4899 215.619 13.7451V25.6184H211.73V14.3805C211.73 12.9819 211.463 11.94 210.928 11.2551C210.625 10.8984 210.241 10.6184 209.807 10.4382C209.374 10.2581 208.904 10.183 208.436 10.219C206.919 10.219 205.818 10.6904 205.111 11.6298C204.404 12.5692 204.048 14.0473 204.048 15.9623L204.052 25.6184Z" fill="#008999"/>
<path d="M219.126 2.59016C219.107 2.29993 219.147 2.00882 219.244 1.73453C219.342 1.46024 219.494 1.2085 219.693 0.994621C219.913 0.797443 220.171 0.64608 220.452 0.549413C220.732 0.452747 221.029 0.412724 221.325 0.431693C221.616 0.414234 221.908 0.455067 222.183 0.551767C222.457 0.648467 222.71 0.799065 222.925 0.994621C223.123 1.2085 223.276 1.46024 223.373 1.73453C223.47 2.00882 223.511 2.29993 223.491 2.59016C223.507 2.87374 223.465 3.15754 223.367 3.42457C223.27 3.6916 223.12 3.93637 222.925 4.14425C222.71 4.33981 222.457 4.49041 222.183 4.58711C221.908 4.68381 221.616 4.72464 221.325 4.70718C221.029 4.72654 220.732 4.6867 220.452 4.59001C220.171 4.49333 219.913 4.34176 219.693 4.14425C219.499 3.93593 219.349 3.69108 219.251 3.42416C219.154 3.15724 219.112 2.87366 219.126 2.59016ZM223.253 25.6305H219.359V7.40612H223.271L223.253 25.6305Z" fill="#008999"/>
<path d="M231.016 0H227.12V25.6184H231.016V0Z" fill="#008999"/>
<path d="M242.879 25.9447C240.03 25.9447 237.803 25.1188 236.197 23.4668C234.591 21.8149 233.788 19.5407 233.789 16.6443C233.789 13.6708 234.534 11.3334 236.023 9.63192C237.512 7.93048 239.56 7.07976 242.166 7.07976C244.585 7.07976 246.496 7.80788 247.898 9.26412C249.301 10.7204 250.002 12.7303 250.002 15.294V17.3851H237.798C237.85 19.1499 238.33 20.5077 239.238 21.4586C239.739 21.9491 240.338 22.3294 240.996 22.5745C241.655 22.8196 242.358 22.9242 243.059 22.8814C244.075 22.8884 245.089 22.7865 246.083 22.5775C247.117 22.3412 248.124 22.0022 249.09 21.5656V24.7239C248.175 25.166 247.207 25.487 246.208 25.6788C245.111 25.8737 243.998 25.9621 242.884 25.943L242.879 25.9447ZM242.166 10.0153C241.616 9.99133 241.067 10.0831 240.554 10.2845C240.042 10.4859 239.578 10.7925 239.193 11.1843C238.374 12.1475 237.904 13.3565 237.859 14.6171H246.174C246.152 13.1206 245.788 11.9821 245.083 11.2016C244.713 10.8042 244.261 10.4921 243.757 10.2872C243.253 10.0822 242.71 9.98942 242.166 10.0153Z" fill="#008999"/>
</g>
<defs>
<clipPath id="clip0_77_247">
<rect width="250" height="26" fill="white"/>
</clipPath>
</defs>
</svg>
