<svg xmlns="http://www.w3.org/2000/svg" xmlns:xlink="http://www.w3.org/1999/xlink" viewBox="0 0 949.87 99.37"><defs><style>.cls-1{fill:none;}.cls-2{clip-path:url(#clip-path);}.cls-3{clip-path:url(#clip-path-2);}.cls-4{fill:#8bd3dd;}.cls-5{fill:#46acb8;}.cls-6{fill:#c0e0e5;}.cls-7{fill:#43acb9;}</style><clipPath id="clip-path" transform="translate(0 0)"><rect class="cls-1" width="949.87" height="99.37"/></clipPath><clipPath id="clip-path-2" transform="translate(0 0)"><rect class="cls-1" width="949.87" height="99.37"/></clipPath></defs><g id="Layer_2" data-name="Layer 2"><g id="Layer_1-2" data-name="Layer 1"><g id="Affordable_Smile_Logo" data-name="Affordable Smile Logo"><g class="cls-2"><g class="cls-3"><path class="cls-4" d="M170.1,96.28l-10.46-26.7H126L115.7,96.28h-9.88L139,12.05h8.2l33,84.23ZM156.62,60.82l-9.75-26Q145,29.88,143,22.72a105.63,105.63,0,0,1-3.61,12.09l-9.88,26Z" transform="translate(0 0)"/><path class="cls-4" d="M212.76,40.81h-16V96.28h-9.54V40.81H176.1v-4.3l11.23-3.44V29.55q-.11-23.11,20.14-23.11a41.65,41.65,0,0,1,11.71,2l-2.47,7.63a31.81,31.81,0,0,0-9.41-1.79,9.19,9.19,0,0,0-8,3.59c-1.71,2.41-2.57,6.23-2.57,11.51v4.08h16Zm39.81,0h-16V96.28H227V40.81H215.81v-4.3L227,33.07V29.55q0-23.19,20.25-23.19a40.94,40.94,0,0,1,11.71,2L256.53,16a31.48,31.48,0,0,0-9.41-1.78,9.18,9.18,0,0,0-8,3.58c-1.72,2.41-2.58,6.23-2.58,11.52V33.4h16Z" transform="translate(0 0)"/><path class="cls-4" d="M312.51,64.77q0,15.36-7.75,24t-21.47,8.59a28.37,28.37,0,0,1-15-4,26.24,26.24,0,0,1-10.09-11.36,39.81,39.81,0,0,1-3.55-17.33q0-15.36,7.69-24c5.11-5.73,12.24-8.59,21.33-8.59a26.61,26.61,0,0,1,21,8.79q7.75,8.76,7.78,23.75m-47.92,0q0,12,4.83,18.36a19.1,19.1,0,0,0,28.37,0q4.84-6.27,4.84-18.38t-4.84-18.21a17,17,0,0,0-14.32-6.23,16.77,16.77,0,0,0-14.11,6.14q-4.77,6.12-4.77,18.3" transform="translate(0 0)"/><path class="cls-4" d="M352,32.21a38,38,0,0,1,7.52.69l-1.33,8.85a32.55,32.55,0,0,0-6.88-.86,16.76,16.76,0,0,0-13,6.19,22.53,22.53,0,0,0-5.42,15.46V96.28h-9.51V33.4h7.86L332.32,45h.45a27.52,27.52,0,0,1,8.44-9.47A19,19,0,0,1,352,32.24" transform="translate(0 0)"/><path class="cls-4" d="M408.23,87.84h-.51q-6.6,9.55-19.74,9.58A23.37,23.37,0,0,1,368.78,89q-6.84-8.45-6.85-24t6.87-24.2A23.21,23.21,0,0,1,388,32.21a22.85,22.85,0,0,1,19.61,9.3h.75L408,37l-.21-4.42V7h9.51V96.28h-7.75Zm-19,1.61c6.44,0,11.21-1.78,14.13-5.31s4.29-9.25,4.29-17.18V65q0-13.36-4.44-19.1T389,40.16a14.62,14.62,0,0,0-12.89,6.44q-4.44,6.45-4.44,18.39T376,83.18a15.06,15.06,0,0,0,12.89,6.14" transform="translate(0 0)"/><path class="cls-4" d="M470.32,96.28l-1.91-9H468a26.54,26.54,0,0,1-9.38,8,28.47,28.47,0,0,1-11.67,2.15,21.05,21.05,0,0,1-14.66-4.81A17.59,17.59,0,0,1,426.94,79q0-19,30.48-20l10.73-.34v-4q0-7.41-3.17-10.93T454.8,40.2a41.51,41.51,0,0,0-18,4.9l-3-7.34a45.17,45.17,0,0,1,10.21-4,44.65,44.65,0,0,1,11.1-1.44c7.49,0,13,1.68,16.66,5s5.42,8.59,5.42,16V96.3Zm-21.47-6.72a19.35,19.35,0,0,0,14-4.88A18,18,0,0,0,467.9,71V65.35l-9.54.39c-7.56.28-13,1.46-16.36,3.54A10.75,10.75,0,0,0,437,79a9.75,9.75,0,0,0,3.12,7.86,12.85,12.85,0,0,0,8.76,2.71" transform="translate(0 0)"/><path class="cls-4" d="M520.3,32.34a23.4,23.4,0,0,1,19.33,8.59q6.87,8.45,6.85,23.95t-7,24a23.27,23.27,0,0,1-19.18,8.59,27.4,27.4,0,0,1-11.23-2.15,21.33,21.33,0,0,1-8.59-7h-.69l-2,8.1h-6.83V7h9.54V28.67q0,7.3-.48,13.1h.48q6.63-9.41,19.73-9.43m-1.37,8q-9.76,0-14.07,5.59c-2.88,3.73-4.29,10-4.29,18.85s1.46,15.17,4.29,19,7.67,5.71,14.18,5.71A14.65,14.65,0,0,0,532,83q4.29-6.45,4.29-18.39,0-12.3-4.29-18.32c-2.86-4-7.31-6-13.3-6" transform="translate(0 0)"/><rect class="cls-4" x="557.17" y="7" width="9.54" height="89.28"/><path class="cls-4" d="M607.58,97.42q-14,0-22-8.59T577.51,65.2Q577.51,50,585,41a24.84,24.84,0,0,1,20.1-8.83A23.79,23.79,0,0,1,623.82,40a29.84,29.84,0,0,1,6.89,20.51v6.08H587.37c.19,7.38,2.15,12.88,5.61,16.79a19.29,19.29,0,0,0,15,5.76,50.68,50.68,0,0,0,20.08-4.3v8.59a49.45,49.45,0,0,1-9.58,3,54.26,54.26,0,0,1-10.87,1M605.07,40.2A15.58,15.58,0,0,0,593,45.14a22.74,22.74,0,0,0-5.31,13.66h32.88q0-9-4-13.79a14.16,14.16,0,0,0-11.47-4.81" transform="translate(0 0)"/><path class="cls-4" d="M47.37,78l.17.26A85.45,85.45,0,0,1,35.38,92.78C20,107,11,76.05,7.66,64.86a179,179,0,0,1-6.25-27c-1.14-8-3.57-20.36,2.87-26.72,9.78-9.57,30.2,0,40.81,4.08l2.15.88h.15C40.58,18.94,33,23.54,30.21,30.43c-3.89,9.47,1.11,19.68,5.5,27.92A214.78,214.78,0,0,0,47.17,77.9" transform="translate(0 0)"/><path class="cls-5" d="M59.18,58.46A220.35,220.35,0,0,1,47.73,78a2.48,2.48,0,0,1-.19.26L47.37,78A212.42,212.42,0,0,1,35.9,58.44C31.6,50.17,26.51,40,30.4,30.52,33.17,23.62,40.75,19,47.58,16.15c6.79,2.88,14.35,7.5,17.18,14.37,3.87,9.47-1.14,19.67-5.52,27.92" transform="translate(0 0)"/><path class="cls-6" d="M93.67,37.82a179.8,179.8,0,0,1-6.25,27.1C84.07,76.05,75.07,107,59.69,92.84A84,84,0,0,1,47.54,78.32a2.35,2.35,0,0,0,.19-.25A220.52,220.52,0,0,0,59.18,58.54c4.29-8.29,9.38-18.49,5.52-27.91-2.79-6.88-10.35-11.49-17.18-14.37h.12l2.15-.88c10.74-4,31.08-13.66,40.81-4.08C97,17.74,94.64,30,93.5,38" transform="translate(0 0)"/><path class="cls-7" d="M706.91,73A23.19,23.19,0,0,1,698,92.35q-8.85,7-24.48,7A58.64,58.64,0,0,1,648,94.5V80.09a68.54,68.54,0,0,0,13.44,4.66,56.27,56.27,0,0,0,13.17,1.69c6,0,10.35-1.11,13.18-3.39a11.06,11.06,0,0,0,4.3-9.13,11.43,11.43,0,0,0-3.91-8.74q-3.88-3.59-16.1-8.59-12.78-5-17.85-11.49a24.73,24.73,0,0,1-5.16-15.74,22.09,22.09,0,0,1,8.19-18.13q8.13-6.59,21.94-6.59a64.7,64.7,0,0,1,26.31,5.78L700.75,22.7a57.5,57.5,0,0,0-21.91-5.17,16.81,16.81,0,0,0-11.06,3.17A10.46,10.46,0,0,0,664,29.12a11.9,11.9,0,0,0,1.5,6.12,15.36,15.36,0,0,0,5,4.81,84.49,84.49,0,0,0,12.46,6,67.41,67.41,0,0,1,14.84,7.86,23.12,23.12,0,0,1,6.94,8.24A24.81,24.81,0,0,1,706.91,73" transform="translate(0 0)"/><path class="cls-7" d="M775.29,97.91H760.45V55q0-8-3-11.94A11.11,11.11,0,0,0,748,39.09q-8.57,0-12.54,5.58c-2.66,3.72-4,9.88-4,18.51V97.91H716.66V28.31h11.57l2.15,9.12h.75a19.32,19.32,0,0,1,8.4-7.66,27.1,27.1,0,0,1,12.14-2.71q16,0,21.26,11h1a21.15,21.15,0,0,1,8.59-8,27.52,27.52,0,0,1,12.88-2.9c8.31,0,14.35,2.15,18.15,6.29s5.69,10.59,5.69,19.18V97.91H804.48V55q0-8-3.05-11.94A11.25,11.25,0,0,0,792,39.09c-5.76,0-10,1.8-12.63,5.39s-4,9.21-4,16.56Z" transform="translate(0 0)"/><path class="cls-7" d="M832.57,9.88a8.2,8.2,0,0,1,2.14-6.1,8.49,8.49,0,0,1,6.21-2.15A8.3,8.3,0,0,1,847,3.78a8.25,8.25,0,0,1,2.15,6.1A8.12,8.12,0,0,1,847,15.83,8.3,8.3,0,0,1,840.92,18a8.49,8.49,0,0,1-6.21-2.15,8.11,8.11,0,0,1-2.14-5.95m15.67,88.05H833.45V28.31h14.86Z" transform="translate(0 0)"/><rect class="cls-7" x="862.93" width="14.8" height="97.91"/><path class="cls-7" d="M922.81,99.16q-16.23,0-25.38-9.47t-9.15-26.08q0-17,8.48-26.8t23.34-9.75q13.8,0,21.78,8.36t8,23v8H903.51Q903.8,76.56,909,82a19,19,0,0,0,14.5,5.43A53.47,53.47,0,0,0,935,86.29a60.7,60.7,0,0,0,11.42-3.86V94.5a45.05,45.05,0,0,1-10.95,3.65,66,66,0,0,1-12.63,1M920.1,38.25a14.9,14.9,0,0,0-11.29,4.47,21.44,21.44,0,0,0-5.07,13.12h31.59c-.08-5.73-1.47-10.08-4.14-13.06a14.2,14.2,0,0,0-11.09-4.53" transform="translate(0 0)"/></g></g></g></g></g></svg>