<svg width="42" height="42" viewBox="0 0 42 42" fill="none" xmlns="http://www.w3.org/2000/svg">
<circle opacity="0.3" cx="21" cy="21" r="21" fill="#D5EAED"/>
<path d="M20.9999 8.64709C14.1782 8.64709 8.64697 14.1783 8.64697 21C8.64697 27.8217 14.1782 33.353 20.9999 33.353C27.8216 33.353 33.3529 27.8217 33.3529 21C33.3529 14.1783 27.8216 8.64709 20.9999 8.64709ZM26.294 21.6618C26.294 21.7831 26.1948 21.8824 26.0734 21.8824H21.8823V26.0736C21.8823 26.1949 21.783 26.2942 21.6617 26.2942H20.3381C20.2168 26.2942 20.1176 26.1949 20.1176 26.0736V21.8824H15.9264C15.8051 21.8824 15.7058 21.7831 15.7058 21.6618V20.3383C15.7058 20.2169 15.8051 20.1177 15.9264 20.1177H20.1176V15.9265C20.1176 15.8052 20.2168 15.7059 20.3381 15.7059H21.6617C21.783 15.7059 21.8823 15.8052 21.8823 15.9265V20.1177H26.0734C26.1948 20.1177 26.294 20.2169 26.294 20.3383V21.6618Z" fill="white"/>
</svg>
