<svg width="218" height="91" viewBox="0 0 218 91" fill="none" xmlns="http://www.w3.org/2000/svg">
<g clip-path="url(#clip0_18_205)">
<path d="M40.4086 42.2684C52.4517 39.7834 63.5538 33.2232 71.4702 23.8224C75.1377 19.4655 79.5146 13.7102 78.7631 7.66843C78.1866 3.00359 73.7207 -1.43907 68.8044 0.440701C64.3727 2.13532 62.5639 7.723 62.562 12.0546C62.562 18.5982 65.005 24.8739 67.9874 30.5999C74.0667 42.2742 83.6492 53.6503 82.8391 67.601C81.9801 82.3702 67.1764 87.9374 54.4306 89.0113C40.3187 90.1992 25.8755 86.923 13.7151 79.6729C7.88216 76.193 2.17526 71.3674 1.76874 64.1026C1.39056 57.3368 4.9349 50.9081 9.29325 45.9772C17.4735 36.7197 29.2518 31.6085 41.1122 28.9238C55.101 25.7548 70.5829 24.8729 84.5678 28.4268C87.9411 29.2844 92.1705 31.4818 89.7958 35.5883C87.987 38.7164 83.784 39.4687 80.4977 39.9657C74.0481 40.9402 65.7477 39.8682 63.5577 32.6658C62.7369 29.9529 63.1278 27.047 65.2288 25.0434H63.9828C67.3952 29.2337 72.0829 34.4092 78.0547 34.0515C83.7283 33.7163 87.1066 28.6091 89.7079 24.1752L88.0965 23.9657L91.3115 34.6606C91.4424 35.0952 91.935 35.4295 92.3952 35.2735C98.3826 33.2486 104.553 38.8362 110.432 35.6702C112.049 34.7999 113.302 33.3402 115.22 33.1521C117.336 32.9426 119.715 34.0077 121.826 34.2922C126.089 34.8682 130.394 34.5592 134.649 34.0584C152.071 32.012 169.411 30.1409 186.96 29.5426C197.021 29.1996 207.086 29.16 217.156 29.4237C218.29 29.453 218.29 27.695 217.156 27.6697C199.218 27.2043 181.269 27.6994 163.385 29.1528C154.527 29.8759 145.708 30.8884 136.895 32.0246C132.558 32.583 128.172 33.0829 123.794 32.7467C120.336 32.4807 116.218 30.3368 112.881 32.0012C111.042 32.9192 109.719 34.453 107.605 34.8155C105.759 35.1303 103.881 34.7181 102.087 34.2942C98.7402 33.4961 95.3288 32.4339 91.932 33.5828L93.0167 34.1967L89.7958 23.4979C89.5799 22.7807 88.5733 22.6209 88.1844 23.2884C85.8303 27.3023 82.7472 32.2985 77.481 32.3111C72.2881 32.3228 68.2141 27.4679 65.2288 23.8019C64.9239 23.4268 64.2985 23.5008 63.9828 23.8019C60.2372 27.3676 60.9105 33.271 63.9115 37.0997C67.8711 42.1524 75.1133 42.5519 80.9658 41.6554C85.7727 40.9197 94.3535 37.9836 91.9105 31.3503C90.9783 28.8166 88.3515 27.655 85.929 26.9651C82.3319 25.9361 78.5775 25.3475 74.8602 24.9587C60.7111 23.4823 45.4569 25.061 31.9714 29.6654C20.2947 33.6481 8.5838 40.9197 2.84171 52.2256C0.0390742 57.7441 -1.19417 64.3833 1.5 70.1873C4.33391 76.2895 10.6017 80.1757 16.3673 83.1596C29.0866 89.7412 43.8269 92.3041 58.0218 90.3707C70.2927 88.6985 83.0453 82.4306 84.5042 68.8084C86.0365 54.4835 76.3416 42.474 69.9858 30.6029C66.6829 24.4334 63.2431 16.6678 64.5545 9.48974C65.0626 6.72123 66.422 3.40312 69.1757 2.18112C72.7367 0.600516 76.0973 3.71496 76.8752 7.05353C77.8191 11.1025 75.5892 15.1349 73.3973 18.3819C71.4413 21.2686 69.1962 23.9495 66.6965 26.3833C61.6941 31.2727 55.7833 35.1422 49.2954 37.775C46.2685 38.9885 43.1378 39.9266 39.9415 40.5776C38.8314 40.8066 39.3014 42.5013 40.4106 42.2723" fill="black"/>
</g>
<defs>
<clipPath id="clip0_18_205">
<rect width="218" height="91" fill="white"/>
</clipPath>
</defs>
</svg>
